<svg width="512" height="512" viewBox="0 0 512 512" fill="none" xmlns="http://www.w3.org/2000/svg" xmlns:xlink="http://www.w3.org/1999/xlink" class=""><rect id="r4" width="512" height="512" x="0" y="0" rx="0" fill="url(#r5)" stroke="#FFFFFF" stroke-width="0" stroke-opacity="100%" paint-order="stroke"></rect><clipPath id="clip"><use xlink:href="#r4"></use></clipPath><defs><linearGradient id="r5" gradientUnits="userSpaceOnUse" gradientTransform="rotate(180)" style="transform-origin: center center;"><stop stop-color="#5C5C5C"></stop><stop offset="1" stop-color="#0F1015"></stop></linearGradient><radialGradient id="r6" cx="0" cy="0" r="1" gradientUnits="userSpaceOnUse" gradientTransform="translate(256) rotate(90) scale(512)"><stop stop-color="white"></stop><stop offset="1" stop-color="white" stop-opacity="0"></stop></radialGradient></defs><svg xmlns="http://www.w3.org/2000/svg" width="352" height="352" viewBox="0 0 24 24" x="80" y="80" alignment-baseline="middle" style="color: rgb(255, 255, 255);"><path fill="currentColor" d="M21 11c0 5.55-3.84 10.74-9 12c-5.16-1.26-9-6.45-9-12V5l9-4l9 4v6m-9 10c3.75-1 7-5.46 7-9.78V6.3l-7-3.12L5 6.3v4.92C5 15.54 8.25 20 12 21m2.28-11.27c.58.58.9 1.35.9 2.17c0 .83-.32 1.6-.9 2.18l-2.02 2.02c-.6.6-1.39.9-2.18.9c-.79 0-1.58-.3-2.18-.9a3.09 3.09 0 0 1 0-4.36l1.25-1.24l-.01.56c0 .44.07.89.22 1.3l.04.14l-.36.37c-.29.28-.44.63-.44 1.05c0 .39.15.76.43 1.04c.57.57 1.54.57 2.1.01l2.01-2.02c.29-.28.44-.65.44-1.04c0-.41-.15-.77-.44-1.05a.866.866 0 0 1-.24-.57c0-.21.1-.42.24-.57c.31-.3.86-.3 1.14.01M18 9.08c0 .82-.32 1.6-.9 2.18l-1.25 1.24l.01-.56c0-.44-.07-.88-.22-1.3l-.05-.14l.37-.37c.29-.28.44-.63.44-1.05c0-.39-.15-.76-.44-1.04c-.56-.57-1.53-.57-2.09-.01l-2.01 2.02c-.29.28-.44.65-.44 1.05s.15.76.43 1.04c.15.15.25.36.25.57c0 .22-.1.42-.25.57c-.15.15-.35.22-.56.22c-.2 0-.41-.07-.57-.22a3.054 3.054 0 0 1 0-4.36l2.02-2.02a3.09 3.09 0 0 1 4.36 0c.58.6.9 1.36.9 2.18Z"></path></svg></svg>